<svg width="1029" height="441" viewBox="0 0 1029 441" fill="none" xmlns="http://www.w3.org/2000/svg">
<g clip-path="url(#clip0_1_128)">
<rect x="0.61731" y="0.458496" width="1032.15" height="450.87" rx="20.6722" fill="url(#paint0_linear_1_128)"/>
<g clip-path="url(#clip1_1_128)">
<path d="M1156.17 -156.387C1156.17 -156.387 1179.13 39.9772 921.016 162.286C662.902 284.595 723.12 424.506 668.98 505.085C614.84 585.664 505.924 710.204 270.67 669.288C35.4158 628.372 -114.394 881.332 94.5085 1001.16" stroke="#7B53FF" stroke-width="2.38556" stroke-miterlimit="10"/>
<path d="M1134.69 -193.585C1134.69 -193.585 1157.65 2.77933 899.54 125.088C641.425 247.397 723.422 383.332 669.269 463.919C615.115 544.506 494.985 674.839 261.694 643.412C26.7824 611.761 -104.846 876.703 104.057 996.532" stroke="#7B53FF" stroke-width="2.38556" stroke-miterlimit="10"/>
<path d="M1113.21 -230.797C1113.21 -230.797 1136.17 -34.4329 878.055 87.8761C619.941 210.185 723.717 342.143 669.564 422.73C615.41 503.317 483.99 639.505 252.723 617.514C18.0881 595.204 -95.2912 872.051 113.62 991.895" stroke="#7B53FF" stroke-width="2.38556" stroke-miterlimit="10"/>
<path d="M1091.73 -267.995C1091.73 -267.995 1114.69 -71.6313 856.579 50.6777C598.464 172.987 724.006 300.976 669.853 381.563C615.699 462.15 472.931 604.282 243.734 591.646C9.29146 578.724 -85.7422 867.422 123.155 987.273" stroke="#7B53FF" stroke-width="2.38556" stroke-miterlimit="10"/>
<path d="M1070.26 -305.193C1070.26 -305.193 1093.22 -108.829 835.103 13.4799C576.988 135.789 724.309 259.802 670.155 340.389C616.002 420.976 461.819 569.128 234.772 565.762C0.483088 562.288 -76.1795 862.785 132.718 982.637" stroke="#7B53FF" stroke-width="2.38556" stroke-miterlimit="10"/>
<path d="M1048.78 -342.392C1048.78 -342.392 1071.74 -146.027 813.626 -23.7184C555.512 98.5906 724.598 218.635 670.458 299.214C616.305 379.801 450.675 534.046 225.796 539.886C0.915734 545.726 -66.6308 858.156 142.272 977.985" stroke="#7B53FF" stroke-width="2.38556" stroke-miterlimit="10"/>
<path d="M1027.3 -379.603C1027.3 -379.603 1050.26 -183.239 792.142 -60.9302C534.027 61.3788 724.892 177.447 670.739 258.034C616.585 338.621 439.481 499.067 216.812 513.996C-17.3164 529.705 -57.082 853.527 151.821 973.356" stroke="#7B53FF" stroke-width="2.38556" stroke-miterlimit="10"/>
<path d="M1005.82 -416.802C1005.82 -416.802 1028.78 -220.438 770.665 -98.1289C512.551 24.1801 725.195 136.271 671.042 216.858C616.888 297.445 428.271 464.189 207.849 488.112C-26.2444 513.54 -47.5196 848.889 161.383 968.718" stroke="#7B53FF" stroke-width="2.38556" stroke-miterlimit="10"/>
<path d="M984.342 -454C984.342 -454 1007.3 -257.636 749.189 -135.327C491.074 -13.0179 725.476 95.091 671.344 175.684C617.191 256.271 417.052 429.391 198.873 462.236C-35.2092 497.47 -37.9569 844.252 170.932 964.09" stroke="#7B53FF" stroke-width="2.38556" stroke-miterlimit="10"/>
<path d="M962.866 -491.199C962.866 -491.199 985.827 -294.834 727.712 -172.525C469.598 -50.2163 725.779 53.9161 671.625 134.503C617.472 215.09 405.803 394.701 189.889 436.346C-44.1758 481.494 -28.4162 839.609 180.481 959.46" stroke="#7B53FF" stroke-width="2.38556" stroke-miterlimit="10"/>
<path d="M941.382 -528.41C941.382 -528.41 964.343 -332.046 706.228 -209.737C448.114 -87.4279 726.073 12.728 671.92 93.315C617.767 173.902 394.595 360.08 180.905 410.457C-53.1357 465.624 -18.8751 834.966 190.036 954.809" stroke="#7B53FF" stroke-width="2.38556" stroke-miterlimit="10"/>
<path d="M919.905 -565.609C919.905 -565.609 942.866 -369.245 684.752 -246.936C426.637 -124.627 726.362 -28.4394 672.223 52.1396C618.069 132.727 383.4 325.58 171.943 384.572C-62.0402 449.85 -9.31278 830.328 199.598 950.171" stroke="#7B53FF" stroke-width="2.38556" stroke-miterlimit="10"/>
<path d="M898.429 -602.807C898.429 -602.807 921.39 -406.443 663.275 -284.134C405.161 -161.825 726.665 -69.6138 672.511 10.9731C618.358 91.5601 372.24 291.171 162.967 358.696C-70.9379 434.184 0.244197 825.713 209.147 945.542" stroke="#7B53FF" stroke-width="2.38556" stroke-miterlimit="10"/>
<path d="M876.944 -640.019C876.944 -640.019 899.905 -443.654 641.791 -321.345C383.676 -199.036 726.96 -110.802 672.806 -30.2152C618.653 50.3718 361.104 256.803 153.991 332.821C-79.78 418.614 9.80677 821.076 218.696 940.913" stroke="#7B53FF" stroke-width="2.38556" stroke-miterlimit="10"/>
<path d="M855.468 -677.217C855.468 -677.217 878.429 -480.853 620.314 -358.544C362.2 -236.235 727.248 -151.969 673.095 -71.382C618.942 9.20495 350.023 222.532 145.015 306.944C-88.5684 403.105 19.3555 816.446 228.245 936.284" stroke="#7B53FF" stroke-width="2.38556" stroke-miterlimit="10"/>
<path d="M833.992 -714.415C833.992 -714.415 856.953 -518.051 598.838 -395.742C340.724 -273.433 727.551 -193.144 673.398 -112.557C619.244 -31.9699 339.01 188.313 136.053 281.06C-97.2872 387.685 28.918 811.809 237.821 931.639" stroke="#7B53FF" stroke-width="2.38556" stroke-miterlimit="10"/>
<path d="M812.515 -751.614C812.515 -751.614 835.476 -555.25 577.361 -432.941C319.247 -310.632 727.854 -234.319 673.7 -153.732C619.547 -73.145 328.042 154.142 127.076 255.184C-105.953 372.325 38.4667 807.179 247.378 927.023" stroke="#7B53FF" stroke-width="2.38556" stroke-miterlimit="10"/>
<path d="M791.031 -788.826C791.031 -788.826 813.992 -592.461 555.877 -470.152C297.763 -347.843 728.135 -275.499 673.981 -194.912C619.828 -114.325 317.121 120.019 118.093 229.295C-114.55 357.02 48.0077 802.537 256.919 922.38" stroke="#7B53FF" stroke-width="2.38556" stroke-miterlimit="10"/>
<path d="M769.554 -826.024C769.554 -826.024 792.515 -629.66 534.401 -507.351C276.286 -385.042 728.437 -316.674 674.284 -236.087C620.13 -155.5 306.286 85.9185 109.116 203.418C-123.059 341.773 57.57 797.899 266.467 917.751" stroke="#7B53FF" stroke-width="2.38556" stroke-miterlimit="10"/>
<path d="M748.078 -863.222C748.078 -863.222 771.039 -666.858 512.925 -544.549C254.81 -422.24 728.726 -357.84 674.587 -277.261C620.433 -196.674 295.511 51.8578 100.154 177.535C-131.48 326.549 67.1409 793.276 276.03 913.114" stroke="#7B53FF" stroke-width="2.38556" stroke-miterlimit="10"/>
<path d="M726.602 -900.42C726.602 -900.42 749.563 -704.056 491.448 -581.747C233.334 -459.438 729.021 -399.029 674.876 -318.428C620.722 -237.841 284.78 17.8083 91.1785 151.658C-139.855 311.373 76.6899 788.646 285.593 908.476" stroke="#7B53FF" stroke-width="2.38556" stroke-miterlimit="10"/>
<path d="M705.117 -937.632C705.117 -937.632 728.078 -741.268 469.964 -618.959C211.849 -496.65 729.316 -440.218 675.162 -359.631C621.009 -279.044 274.125 -16.267 82.1864 125.755C-148.146 296.184 86.2225 783.99 295.133 903.833" stroke="#7B53FF" stroke-width="2.38556" stroke-miterlimit="10"/>
</g>
</g>
<defs>
<linearGradient id="paint0_linear_1_128" x1="516.693" y1="0.458496" x2="516.693" y2="451.329" gradientUnits="userSpaceOnUse">
<stop stop-color="#594894"/>
<stop offset="1" stop-color="#9281FD" stop-opacity="0.04"/>
</linearGradient>
<clipPath id="clip0_1_128">
<rect x="0.61731" y="0.458496" width="1028.18" height="440.533" rx="23.0604" fill="white"/>
</clipPath>
<clipPath id="clip1_1_128">
<rect width="1134.98" height="1017.7" fill="white" transform="translate(1136.14 203.521) rotate(150)"/>
</clipPath>
</defs>
</svg>
