<svg width="51" height="45" viewBox="0 0 51 45" fill="none" xmlns="http://www.w3.org/2000/svg">
<g clip-path="url(#clip0_1_35)">
<path d="M35.1364 32.4271C33.6682 32.4271 32.3546 33.0066 31.35 33.9146L17.5761 25.8975C17.6727 25.4532 17.75 25.0089 17.75 24.5452C17.75 24.0816 17.6727 23.6373 17.5761 23.193L31.1955 15.2532C32.2386 16.2191 33.6102 16.818 35.1364 16.818C36.6734 16.818 38.1475 16.2074 39.2344 15.1205C40.3212 14.0337 40.9318 12.5596 40.9318 11.0225C40.9318 9.48546 40.3212 8.01136 39.2344 6.9245C38.1475 5.83764 36.6734 5.22705 35.1364 5.22705C33.5993 5.22705 32.1252 5.83764 31.0384 6.9245C29.9515 8.01136 29.3409 9.48546 29.3409 11.0225C29.3409 11.4861 29.4182 11.9305 29.5148 12.3748L15.8955 20.3146C14.8523 19.3486 13.4807 18.7498 11.9546 18.7498C10.4175 18.7498 8.94341 19.3604 7.85655 20.4472C6.76969 21.5341 6.1591 23.0082 6.1591 24.5452C6.1591 26.0823 6.76969 27.5564 7.85655 28.6432C8.94341 29.7301 10.4175 30.3407 11.9546 30.3407C13.4807 30.3407 14.8523 29.7418 15.8955 28.7759L29.65 36.793C29.5534 37.1986 29.4955 37.6236 29.4955 38.068C29.4955 41.1782 32.0261 43.6896 35.1364 43.6896C38.2466 43.6896 40.7773 41.1782 40.7773 38.068C40.7773 36.5719 40.183 35.1371 39.1251 34.0792C38.0672 33.0214 36.6324 32.4271 35.1364 32.4271V32.4271Z" fill="white"/>
</g>
<defs>
<clipPath id="clip0_1_35">
<rect width="50" height="45" fill="white" transform="translate(0.5)"/>
</clipPath>
</defs>
</svg>
